<?xml version="1.0" standalone="no"?>
<!DOCTYPE svg PUBLIC "-//W3C//DTD SVG 20010904//EN"
 "http://www.w3.org/TR/2001/REC-SVG-20010904/DTD/svg10.dtd">
<svg version="1.0" xmlns="http://www.w3.org/2000/svg"
 width="904.000000pt" height="904.000000pt" viewBox="0 0 904.000000 904.000000"
 preserveAspectRatio="xMidYMid meet">
<metadata>
Created by potrace 1.14, written by Peter Selinger 2001-2017
</metadata>
<g transform="translate(0.000000,904.000000) scale(0.100000,-0.100000)"
fill="#000000" stroke="none">
<path d="M2035 7521 c-2 -2 -26 -5 -54 -6 -78 -5 -140 -28 -279 -104 -43 -23
-175 -164 -225 -239 -103 -154 -169 -339 -194 -541 -14 -116 -16 -258 -17
-938 l-1 -751 -36 -6 c-48 -8 -104 -65 -125 -128 -13 -41 -17 -99 -18 -302 -2
-138 1 -269 6 -291 13 -57 57 -122 96 -141 29 -13 163 -15 1180 -16 631 -1
1158 2 1172 7 77 23 131 132 125 253 -2 43 -10 60 -58 124 -115 153 -239 397
-282 558 -1 3 -4 12 -8 20 -7 17 -29 97 -33 120 -1 8 -10 44 -18 79 -16 61
-19 81 -32 176 -19 145 -26 246 -26 380 -1 109 8 277 18 345 2 19 7 53 9 75 3
22 9 63 15 90 6 28 12 59 14 70 21 106 87 316 128 405 11 25 20 47 20 50 0 3
19 41 42 85 l42 80 -1 190 c-2 168 -5 195 -23 237 -29 65 -59 96 -106 109 -50
14 -286 18 -279 5 4 -5 0 -6 -7 -1 -17 10 -180 12 -180 2 0 -5 -5 -5 -11 -1
-17 10 -128 10 -122 0 4 -5 0 -6 -7 -1 -15 9 -180 13 -180 3 0 -3 -8 -5 -17
-3 -10 2 -18 4 -18 5 0 6 -138 3 -142 -3 -2 -4 -9 -4 -15 -1 -11 7 -347 12
-353 5z m328 -884 c26 -1 47 1 47 5 0 4 7 5 15 2 23 -9 275 -10 275 -1 0 5 5
5 11 1 6 -3 48 -6 94 -6 l83 0 0 -849 0 -849 -500 -2 c-324 -2 -502 1 -508 7
-4 6 -7 332 -6 725 2 713 2 715 24 778 13 35 28 70 35 78 84 99 106 110 242
112 60 1 110 4 113 6 2 3 9 3 15 0 7 -2 33 -5 60 -7z"/>
<path d="M4475 7522 c-2 -3 -25 -6 -50 -8 -26 -1 -61 -6 -78 -10 -18 -4 -36
-8 -42 -9 -58 -6 -192 -62 -300 -124 -33 -19 -64 -40 -70 -46 -5 -6 -28 -24
-50 -40 -82 -61 -192 -184 -272 -304 -111 -169 -225 -435 -259 -606 -2 -11 -7
-33 -11 -50 -9 -39 -8 -33 -17 -88 -4 -27 -9 -57 -11 -66 -2 -10 -6 -54 -10
-97 -4 -43 -9 -88 -11 -99 -5 -23 -5 -336 0 -380 3 -33 18 -162 21 -185 2 -15
14 -86 21 -124 9 -49 47 -189 71 -261 15 -44 28 -82 28 -85 10 -40 116 -249
159 -315 152 -231 321 -385 529 -479 179 -82 427 -111 595 -71 12 3 32 7 45
10 203 44 438 198 587 384 14 18 30 37 35 44 103 121 273 480 301 637 3 14 7
32 11 40 3 8 7 22 8 30 1 8 8 42 15 75 7 33 14 76 16 95 2 19 6 46 8 60 25
122 25 549 1 680 -3 14 -8 45 -11 70 -3 25 -8 53 -10 63 -2 9 -6 27 -9 40 -14
66 -29 133 -30 137 -1 3 -4 12 -7 20 -3 8 -11 33 -17 55 -39 129 -108 285
-173 394 -21 34 -38 67 -38 71 0 5 -3 10 -8 12 -4 2 -25 28 -46 58 -62 87
-223 241 -316 302 -145 95 -317 155 -464 164 -39 2 -86 6 -104 7 -18 2 -34 1
-37 -1z m140 -907 c55 -10 111 -33 170 -71 64 -41 92 -67 144 -134 42 -53 117
-190 105 -190 -4 0 -2 -6 4 -12 13 -16 50 -148 59 -214 5 -27 8 -128 7 -224 0
-156 -3 -187 -27 -280 -58 -227 -177 -401 -325 -476 -31 -16 -59 -29 -62 -29
-3 0 -10 -4 -16 -8 -14 -8 -75 -19 -129 -21 -152 -8 -338 89 -431 226 -16 24
-31 45 -34 48 -9 9 -68 143 -85 195 -35 106 -49 209 -49 360 0 142 8 212 36
320 92 354 345 558 633 510z"/>
<path d="M5616 7522 c-2 -1 -17 -4 -34 -6 -63 -7 -118 -74 -138 -165 -8 -40
-9 -125 -1 -138 4 -6 3 -14 -3 -18 -10 -6 12 -73 28 -85 35 -25 215 -366 228
-430 0 -3 6 -18 13 -35 7 -16 15 -41 17 -54 3 -14 7 -28 10 -33 6 -9 50 -176
59 -223 12 -61 25 -141 30 -180 2 -22 7 -67 11 -100 15 -119 8 -498 -11 -630
-29 -202 -61 -334 -122 -502 -19 -54 -37 -106 -40 -115 -3 -10 -9 -18 -14 -18
-5 0 -9 -8 -9 -17 0 -10 -6 -29 -14 -43 -7 -14 -27 -51 -44 -83 -37 -68 -98
-164 -124 -193 -19 -22 -29 -118 -14 -142 4 -7 2 -12 -4 -12 -6 0 -9 -3 -6 -8
2 -4 7 -28 11 -52 8 -62 43 -127 83 -158 33 -25 37 -26 205 -26 126 0 180 4
203 14 38 17 90 91 102 145 5 22 9 335 10 695 0 360 1 664 2 675 1 21 1 22 31
-50 4 -11 17 -41 28 -67 12 -26 21 -49 21 -53 0 -3 9 -24 19 -48 11 -23 36
-82 56 -132 41 -101 53 -129 84 -197 11 -26 21 -51 21 -54 0 -3 6 -20 14 -37
29 -63 124 -292 128 -306 2 -7 21 -50 43 -94 53 -107 73 -121 181 -126 134 -5
155 2 217 78 9 12 17 24 17 28 0 4 34 91 76 193 97 236 95 232 105 251 4 9 31
74 58 143 28 70 59 146 70 169 10 23 44 106 76 184 32 79 61 140 64 138 4 -5
5 -148 1 -170 -1 -6 -1 -12 0 -15 6 -16 4 -130 -3 -130 -5 0 -5 -5 -1 -12 11
-17 11 -131 1 -145 -5 -7 -6 -13 -1 -13 5 0 9 -202 9 -453 1 -450 1 -452 24
-499 30 -62 63 -94 109 -105 20 -5 105 -8 187 -8 116 1 157 5 181 18 34 17 74
73 93 127 9 27 11 395 8 1590 -2 855 -7 1568 -11 1584 -18 71 -74 133 -129
142 -58 9 -281 6 -307 -4 -35 -14 -76 -60 -95 -107 -9 -22 -23 -53 -30 -70
-22 -54 -36 -87 -107 -265 -38 -96 -76 -188 -83 -205 -13 -32 -50 -121 -280
-690 -80 -198 -160 -395 -177 -438 -18 -42 -36 -76 -41 -74 -5 1 -65 140 -133
307 -69 168 -129 314 -133 325 -5 11 -16 36 -24 55 -9 19 -30 71 -47 115 -17
44 -38 94 -45 110 -12 26 -37 86 -130 315 -12 30 -28 69 -35 85 -20 49 -26 62
-105 255 -42 102 -88 202 -101 223 -36 55 -121 86 -180 66 -12 -4 -25 -5 -28
-2 -6 6 -125 11 -130 5z"/>
<path d="M398 5970 c-183 -33 -339 -256 -376 -535 -12 -97 -5 -2440 8 -2440 1
0 4 -13 6 -29 9 -54 62 -184 98 -241 65 -101 163 -183 241 -201 17 -3 100 -8
185 -9 85 -2 163 -4 173 -4 10 -1 16 -5 13 -10 -3 -4 -8 -26 -11 -47 -2 -21
-6 -48 -9 -59 -2 -11 -7 -49 -11 -85 -4 -36 -9 -74 -11 -85 -3 -11 -7 -38 -10
-60 -9 -71 -45 -329 -50 -365 -3 -19 -7 -51 -10 -70 -4 -33 -9 -72 -19 -137
-2 -15 -6 -38 -9 -49 -4 -21 -3 -22 170 -22 123 1 177 4 184 13 5 6 12 29 14
51 3 34 20 161 31 234 11 78 17 118 21 145 3 17 7 46 9 65 2 19 6 51 10 70 3
19 8 51 10 70 4 45 14 108 21 140 3 14 7 43 9 65 8 84 15 128 19 132 3 3 485
4 1073 3 1072 -1 5562 -9 5703 -10 65 0 76 -3 77 -17 4 -44 12 -104 22 -173 7
-41 13 -88 16 -105 2 -16 6 -43 9 -60 3 -16 8 -52 11 -80 3 -27 15 -113 26
-190 20 -146 24 -170 34 -245 3 -25 8 -54 10 -65 2 -11 4 -25 4 -31 1 -8 55
-11 180 -11 l179 0 -5 46 c-2 25 -6 62 -8 81 -3 19 -7 46 -11 60 -4 14 -8 34
-9 45 -8 84 -17 150 -20 155 -1 3 -6 34 -10 70 -4 36 -9 74 -11 85 -4 19 -6
34 -19 129 -3 22 -8 57 -10 76 -3 19 -8 53 -10 75 -3 22 -8 56 -10 75 -13 83
-27 75 135 77 183 2 218 6 282 39 61 31 157 127 184 184 10 22 22 40 27 40 4
0 7 9 7 19 0 11 4 22 8 25 8 5 38 99 59 181 4 17 9 565 10 1220 2 1037 0 1200
-13 1265 -17 85 -18 89 -28 112 -4 9 -9 22 -10 30 -4 24 -46 107 -78 154 -47
70 -113 130 -179 162 -114 56 -258 29 -364 -70 -25 -23 -56 -59 -68 -78 -11
-19 -24 -37 -27 -40 -19 -16 -89 -197 -96 -250 -14 -98 -17 -230 -18 -910 l-1
-765 -1465 2 c-3135 4 -5781 11 -5786 16 -3 3 -6 358 -6 790 -1 893 1 866 -75
1054 -14 34 -31 67 -39 74 -8 6 -14 17 -14 25 0 20 -110 129 -160 157 -63 36
-143 50 -212 37z"/>
</g>
</svg>
