    <svg
      width="50"
      height="50"
      viewBox="0 0 34 31"
      fill="none"
      xmlns="http://www.w3.org/2000/svg"
    >
      <path
        d="M1.43497 1.54104C1.43497 1.54104 3.77221 1.44869 4.23087 1.54104C4.68953 1.6334 4.67869 7.209 4.87608 7.13284M6.32779 19.7144C6.32779 19.7144 29.3939 19.0154 30.0929 18.3164C30.7919 17.6174 33.5878 7.83181 32.8888 7.13284C32.1898 6.43386 4.87608 7.13284 4.87608 7.13284M6.32779 19.7144L4.87608 7.13284M6.32779 19.7144C6.32779 19.7144 7.72574 23.9082 8.42471 23.9082C9.12369 23.9082 25.8991 23.9082 25.8991 23.9082M11.2206 23.9082C9.67648 23.9082 8.42471 25.16 8.42471 26.7041C8.42471 28.2482 9.67648 29.5 11.2206 29.5C12.7647 29.5 14.0165 28.2482 14.0165 26.7041C14.0165 25.16 12.7647 23.9082 11.2206 23.9082ZM25.2001 23.9082C23.656 23.9082 22.4042 25.16 22.4042 26.7041C22.4042 28.2482 23.656 29.5 25.2001 29.5C26.7442 29.5 27.996 28.2482 27.996 26.7041C27.996 25.16 26.7442 23.9082 25.2001 23.9082Z"
        stroke="#262626"
        strokeWidth="1.3"
        strokeLinecap="round"
      />
    </svg>
