<?xml version="1.0" encoding="UTF-8" standalone="no"?>
<svg
   xmlns:dc="http://purl.org/dc/elements/1.1/"
   xmlns:cc="http://creativecommons.org/ns#"
   xmlns:rdf="http://www.w3.org/1999/02/22-rdf-syntax-ns#"
   xmlns:svg="http://www.w3.org/2000/svg"
   xmlns="http://www.w3.org/2000/svg"
   viewBox="0 0 595.27557 841.88977"
   id="svg2"
   height="841.88977"
   width="595.27557"
   version="1.1">
  <metadata
     id="metadata18">
    <rdf:RDF>
      <cc:Work
         rdf:about="">
        <dc:format>image/svg+xml</dc:format>
        <dc:type
           rdf:resource="http://purl.org/dc/dcmitype/StillImage" />
      </cc:Work>
    </rdf:RDF>
  </metadata>
  <defs
     id="defs16" />
  <path
     id="path4"
     style="fill:#921dad;fill-rule:evenodd"
     d="m 450.3168,327.2521 0.1323,86.637 c 0.0191,0.2015 0.0293,0.4052 0.0293,0.6114 0,3.767 -3.2633,6.8208 -7.2888,6.8208 l -12.7864,0 0,-0.0267 c -4.0098,0 -7.2603,-3.0418 -7.2603,-6.7941 l -0.0816,-38.9562 -19.9649,31.3638 c -1.1867,2.2618 -3.672,3.8188 -6.5462,3.8188 l -6.149,0 0,-0.021 c -2.4692,-0.002 -4.8756,-1.1822 -6.2354,-3.3095 l -20.1956,-31.5024 0,38.6065 c 0,3.767 -3.2633,6.8208 -7.2888,6.8208 l -12.7865,0 c -4.0254,0 -7.2888,-3.0538 -7.2888,-6.8208 l 0,-3.9193 c 0.4703,-0.3965 0.9335,-0.7998 1.3886,-1.2107 10.6681,-9.6334 17.0403,-23.081 17.0403,-38.4942 0,-15.4131 -6.372,-28.8608 -17.0403,-38.4943 -0.4551,-0.4109 -0.9183,-0.8141 -1.3886,-1.2106 l 0,-3.9193 c 0,-3.767 3.2634,-6.8209 7.2888,-6.8209 l 10.9218,0 0,0.0119 c 2.4863,0.002 4.9074,1.1971 6.2638,3.3454 l 32.6361,51.4003 31.8249,-50.8475 c 1.1672,-2.311 3.6805,-3.9101 6.5932,-3.9101 l 10.9218,0 0,0.0267 c 4.0098,0 7.2603,3.0419 7.2603,6.7942 z" />
  <path
     id="path6"
     style="fill:#a9004b;fill-rule:evenodd"
     d="m 148.9781,353.774 5e-4,0 c 0.1944,-9.0632 2.6449,-16.8155 9.528,-23.2567 7.1862,-6.7238 15.8549,-10.0861 26.005,-10.0861 l 48.1978,0 8.1996,0 1.0032,0 0,0.0269 c 4.0098,0 7.2603,3.0417 7.2603,6.7941 l 0.0142,9.3058 c -8.2058,9.1985 -12.9668,21.0477 -12.9668,34.3183 0,15.3807 6.3946,28.8527 17.1365,38.5006 1.1172,1.0035 2.2811,1.964 3.4882,2.8807 l 0.0188,1.6316 c 0.0194,0.2012 0.0297,0.4051 0.0297,0.6112 0,3.7669 -3.2637,6.8211 -7.2891,6.8211 l -7.5378,0 -0.0211,0 -1.7768,0 -7.5589,0 0,-0.0401 -72.651,-0.0845 -2.6572,0.0287 0,0.0959 -8.9205,0 -0.4153,0 c -4.0254,0 -7.2891,-3.0542 -7.2891,-6.8211 0,-0.2061 0.0104,-0.41 0.0297,-0.6112 l 0.1321,-11.4654 c 0,-3.7524 3.2505,-6.7942 7.2602,-6.7942 l 0,-0.0269 0.7798,0 0,-38.682 c -0.0308,-0.7352 -0.037,-1.3895 -0.0127,-1.9422 0,-0.3974 0.004,-0.7921 0.0127,-1.1847 l 0,-0.0198 z m 27.3149,2.439 0,39.3897 45.6375,0 0,-49.4768 -34.8583,0 c -2.964,0 -5.5024,0.9661 -7.6129,2.8996 -2.1105,1.9333 -3.1663,4.3295 -3.1663,7.1875 z" />
  <path
     id="path8"
     style="fill:#151616;fill-rule:evenodd"
     d="m 117.9219,504.2743 0.0303,19.8623 c 0.003,0.0285 0.004,0.0573 0.004,0.0864 0,0.5356 -0.464,0.9697 -1.0362,0.9697 l -2.9236,0 0,-0.004 c -0.57,0 -1.0321,-0.4325 -1.0321,-0.9659 l -0.0232,-11.0354 -5.7542,9.0397 c -0.1687,0.3216 -0.522,0.543 -0.9307,0.543 l -1.4059,0 0,-0.003 c -0.3511,-3e-4 -0.6932,-0.1681 -0.8864,-0.4704 l -5.7873,-9.0274 0,10.9535 c 0,0.5356 -0.4639,0.9697 -1.0362,0.9697 l -2.9236,0 c -0.5722,0 -1.0361,-0.4341 -1.0361,-0.9697 l 0,-19.9487 c 0,-0.5355 0.4639,-0.9697 1.0361,-0.9697 l 2.4972,0 0,0.002 c 0.3535,4e-4 0.6977,0.1702 0.8905,0.4756 l 8.0069,12.6104 7.8441,-12.5324 c 0.166,-0.3282 0.523,-0.5553 0.9369,-0.5553 l 2.4971,0 0,0.004 c 0.57,0 1.0322,0.4325 1.0322,0.9659 z m 14.2089,11.9984 0,4.5013 11.389,0 c 0.5723,0 1.0362,0.4342 1.0362,0.9697 l 0,2.4793 c 0,0.5356 -0.4639,0.9697 -1.0362,0.9697 l -15.4705,0 c -0.5722,0 -1.0361,-0.4341 -1.0361,-0.9697 l 0,-19.9487 c 0,-0.5355 0.4639,-0.9697 1.0361,-0.9697 l 15.0441,0 c 0.5723,0 1.0362,0.4342 1.0362,0.9697 l 0,2.4793 c 0,0.5356 -0.4639,0.9697 -1.0362,0.9697 l -10.9626,0 0,4.1878 9.6531,0 c 0.5723,0 1.0362,0.4341 1.0362,0.9696 l 0,2.4224 c 0,0.5355 -0.4639,0.9696 -1.0362,0.9696 l -9.6531,0 z m 29.8118,8.92 -9.1361,0 c -0.5722,0 -1.0361,-0.4341 -1.0361,-0.9697 l 0,-19.9487 c 0,-0.5355 0.4639,-0.9697 1.0361,-0.9697 l 16.0795,0 c 0.5723,0 1.0362,0.4342 1.0362,0.9697 l 0,2.4223 c 0,0.5355 -0.4639,0.9697 -1.0362,0.9697 l -12.0284,0 0,3.7603 5.6027,0 c 2.7728,0 4.9261,0.576 6.4199,1.6834 1.5741,1.1668 2.382,2.8635 2.382,5.0429 0,2.264 -0.8767,4.0388 -2.5443,5.2607 -1.5909,1.1658 -3.8768,1.7791 -6.7753,1.7791 z m -5.085,-9.5754 0,5.3847 4.9632,0 c 1.5275,0 2.661,-0.2552 3.3784,-0.7511 0.624,-0.4313 0.9452,-1.0968 0.9452,-1.984 0,-0.8936 -0.3031,-1.5371 -0.9066,-1.9408 -0.7119,-0.4763 -1.8527,-0.7088 -3.417,-0.7088 l -4.9632,0 z m 26.7976,0.6554 0,4.5013 11.3889,0 c 0.5722,0 1.0361,0.4342 1.0361,0.9697 l 0,2.4793 c 0,0.5356 -0.4639,0.9697 -1.0361,0.9697 l -15.4704,0 c -0.5723,0 -1.0362,-0.4341 -1.0362,-0.9697 l 0,-19.9487 c 0,-0.5355 0.4639,-0.9697 1.0362,-0.9697 l 15.044,0 c 0.5722,0 1.0361,0.4342 1.0361,0.9697 l 0,2.4793 c 0,0.5356 -0.4639,0.9697 -1.0361,0.9697 l -10.9625,0 0,4.1878 9.653,0 c 0.5722,0 1.0361,0.4341 1.0361,0.9696 l 0,2.4224 c 0,0.5355 -0.4639,0.9696 -1.0361,0.9696 l -9.653,0 z m 21.7296,-3.6255 0.332,-8.3312 -0.001,-0.0417 c 0,-0.5355 0.4639,-0.9697 1.0361,-0.9697 l 14.9984,0 c 0.5722,0 1.0361,0.4342 1.0361,0.9697 l 0,19.9487 c 0,0.5356 -0.4639,0.9697 -1.0361,0.9697 l -2.9844,0 c -0.5723,0 -1.0362,-0.4341 -1.0362,-0.9697 l 0,-16.4997 -7.3913,0 -0.1789,4.9028 c -0.1409,4.0746 -0.5589,7.1473 -1.501,9.2432 -1.0653,2.3704 -2.7429,3.5514 -5.3174,3.5514 -0.3424,0 -0.6797,-0.0164 -1.039,-0.0574 -0.3369,-0.0385 -0.6924,-0.0999 -1.0902,-0.1916 -0.5035,-0.0972 -0.8627,-0.5324 -0.8215,-1.0244 l 0.2131,-2.5364 c 0.005,-0.0526 0.0142,-0.1059 0.0284,-0.159 0.1385,-0.5187 0.7004,-0.8342 1.2547,-0.7045 0.1346,0.0314 0.2544,0.0528 0.3733,0.0663 0.1075,0.0124 0.2204,0.0173 0.3503,0.0173 0.8285,0 1.4118,-0.5255 1.8341,-1.6043 0.5505,-1.4058 0.8227,-3.5906 0.9405,-6.5795 z m 31.5609,-2.389 5.2983,0 c 2.7952,0 4.9954,0.6204 6.5224,1.8445 1.554,1.2457 2.3708,3.0596 2.3708,5.4233 0,2.4839 -0.8825,4.3937 -2.5302,5.7064 -1.6313,1.2999 -3.9741,1.9603 -6.9111,1.9603 l -8.8012,0 c -0.5723,0 -1.0362,-0.4341 -1.0362,-0.9697 l 0,-19.9487 c 0,-0.5355 0.4639,-0.9697 1.0362,-0.9697 l 3.0149,0 c 0.5722,0 1.0361,0.4342 1.0361,0.9697 l 0,5.9839 z m 0,10.7438 4.6283,0 c 1.5227,0 2.6709,-0.3014 3.4059,-0.8899 0.6819,-0.5458 1.0396,-1.3931 1.0396,-2.5291 0,-1.0906 -0.343,-1.8636 -1.004,-2.3447 -0.7346,-0.5347 -1.893,-0.7894 -3.4415,-0.7894 l -4.6283,0 0,6.5531 z m 36.4195,-9.1194 0,-7.6083 c 0,-0.5355 0.4639,-0.9697 1.0361,-0.9697 l 3.0454,0 c 0.5722,0 1.0362,0.4342 1.0362,0.9697 l 0,19.9487 c 0,0.5356 -0.464,0.9697 -1.0362,0.9697 l -3.0454,0 c -0.5722,0 -1.0361,-0.4341 -1.0361,-0.9697 l 0,-7.9218 -10.17,0 0,7.9218 c 0,0.5356 -0.464,0.9697 -1.0362,0.9697 l -3.0454,0 c -0.5722,0 -1.0361,-0.4341 -1.0361,-0.9697 l 0,-19.9487 c 0,-0.5355 0.4639,-0.9697 1.0361,-0.9697 l 3.0454,0 c 0.5722,0 1.0362,0.4342 1.0362,0.9697 l 0,7.6083 10.17,0 z m 19.2769,-1.6244 5.2982,0 c 2.7952,0 4.9954,0.6204 6.5225,1.8446 1.5539,1.2455 2.3708,3.0595 2.3708,5.4232 0,2.4838 -0.8824,4.3935 -2.5302,5.7064 -1.6313,1.2999 -3.9741,1.9603 -6.9112,1.9603 l -8.8011,0 c -0.5723,0 -1.0362,-0.4341 -1.0362,-0.9697 l 0,-19.9487 c 0,-0.5355 0.4639,-0.9697 1.0362,-0.9697 l 3.0149,0 c 0.5722,0 1.0361,0.4342 1.0361,0.9697 l 0,5.9839 z m 19.5505,14.9345 -3.0149,0 c -0.5722,0 -1.0361,-0.4341 -1.0361,-0.9697 l 0,-19.9487 c 0,-0.5355 0.4639,-0.9697 1.0361,-0.9697 l 3.0149,0 c 0.5723,0 1.0362,0.4342 1.0362,0.9697 l 0,19.9487 c 0,0.5356 -0.4639,0.9697 -1.0362,0.9697 z m -19.5505,-4.1907 4.6282,0 c 1.5227,0 2.6709,-0.3014 3.4059,-0.8899 0.6819,-0.5458 1.0396,-1.3931 1.0396,-2.5291 0,-1.0906 -0.3429,-1.8635 -1.004,-2.3447 -0.7346,-0.5347 -1.893,-0.7894 -3.4415,-0.7894 l -4.6282,0 0,6.5531 z m 44.3322,-18.3908 c -1.0744,0.8056 -2.5879,1.2363 -4.4708,1.2363 -1.9084,0 -3.4244,-0.4273 -4.4965,-1.2263 -1.1209,-0.8356 -1.7284,-2.0351 -1.7715,-3.5421 -0.004,-0.0347 -0.006,-0.0698 -0.006,-0.1055 0,-0.5355 0.4639,-0.9697 1.0362,-0.9697 l 2.1621,0 0,0.004 c 0.5626,0 1.0234,0.4225 1.0322,0.9508 0.009,0.4346 0.1692,0.7679 0.4541,0.9844 0.3411,0.2591 0.8822,0.3981 1.5895,0.3981 0.6816,0 1.2165,-0.1408 1.562,-0.4032 0.2782,-0.2114 0.4472,-0.5278 0.4781,-0.9364 l -5e-4,-0.0277 c 0,-0.5355 0.464,-0.9697 1.0362,-0.9697 l 2.1318,0 0,0.004 0.008,-10e-5 c 0.57,0.004 1.0286,0.44 1.0241,0.9734 -0.019,1.5486 -0.6332,2.7785 -1.7689,3.6301 z m -10.8355,22.5815 -2.8018,0 c -0.5722,0 -1.0361,-0.4341 -1.0361,-0.9697 l 0,-19.9487 c 0,-0.5355 0.4639,-0.9697 1.0361,-0.9697 l 3.0149,0 c 0.5723,0 1.0362,0.4342 1.0362,0.9697 l 0,12.5342 10.7084,-13.0706 c 0.1856,-0.2611 0.5029,-0.4333 0.8632,-0.4333 l 2.8018,0 c 0.5722,0 1.0361,0.4342 1.0361,0.9697 l 0,19.9487 c 0,0.5356 -0.4639,0.9697 -1.0361,0.9697 l -2.9845,0 c -0.5723,0 -1.0362,-0.4341 -1.0362,-0.9697 l 0,-12.5165 -10.7342,13.0465 c -0.185,0.2648 -0.5046,0.4397 -0.8678,0.4397 z m 65.7803,-20.9184 0,16.4997 2.2528,0 c 0.5723,0 1.0362,0.4342 1.0362,0.9697 l 0,7.0105 c 0,0.5356 -0.4639,0.9697 -1.0362,0.9697 l -2.8321,0 c -0.5723,0 -1.0362,-0.4341 -1.0362,-0.9697 l 0,-3.5615 -17.3273,0 c -0.5723,0 -1.0362,-0.4341 -1.0362,-0.9697 l 0,-19.9487 c 0,-0.5355 0.4639,-0.9697 1.0362,-0.9697 l 3.0149,0 c 0.5723,0 1.0362,0.4342 1.0362,0.9697 l 0,16.4997 9.8045,0 0,-16.4997 c 0,-0.5355 0.4639,-0.9697 1.0362,-0.9697 l 3.0149,0 c 0.5722,0 1.0361,0.4342 1.0361,0.9697 z m 14.8902,11.9984 0,4.5013 11.389,0 c 0.5722,0 1.0361,0.4342 1.0361,0.9697 l 0,2.4793 c 0,0.5356 -0.4639,0.9697 -1.0361,0.9697 l -15.4705,0 c -0.5723,0 -1.0362,-0.4341 -1.0362,-0.9697 l 0,-19.9487 c 0,-0.5355 0.4639,-0.9697 1.0362,-0.9697 l 15.0441,0 c 0.5722,0 1.0361,0.4342 1.0361,0.9697 l 0,2.4793 c 0,0.5356 -0.4639,0.9697 -1.0361,0.9697 l -10.9626,0 0,4.1878 9.6531,0 c 0.5722,0 1.0361,0.4341 1.0361,0.9696 l 0,2.4224 c 0,0.5355 -0.4639,0.9696 -1.0361,0.9696 l -9.6531,0 z m 34.9272,-4.3901 0,-7.6083 c 0,-0.5355 0.4639,-0.9697 1.0362,-0.9697 l 3.0453,0 c 0.5723,0 1.0362,0.4342 1.0362,0.9697 l 0,19.9487 c 0,0.5356 -0.4639,0.9697 -1.0362,0.9697 l -3.0453,0 c -0.5723,0 -1.0362,-0.4341 -1.0362,-0.9697 l 0,-7.9218 -10.17,0 0,7.9218 c 0,0.5356 -0.4639,0.9697 -1.0362,0.9697 l -3.0453,0 c -0.5723,0 -1.0362,-0.4341 -1.0362,-0.9697 l 0,-19.9487 c 0,-0.5355 0.4639,-0.9697 1.0362,-0.9697 l 3.0453,0 c 0.5723,0 1.0362,0.4342 1.0362,0.9697 l 0,7.6083 10.17,0 z m 12.3024,-8.578 17.5717,0 c 0.5723,0 1.0362,0.4342 1.0362,0.9697 l 0,2.4793 c 0,0.5356 -0.4639,0.9697 -1.0362,0.9697 l -6.2727,0 0,16.4997 c 0,0.5356 -0.4639,0.9697 -1.0362,0.9697 l -2.9844,0 c -0.5723,0 -1.0362,-0.4341 -1.0362,-0.9697 l 0,-16.4997 -6.2422,0 c -0.5723,0 -1.0362,-0.4341 -1.0362,-0.9697 l 0,-2.4793 c 0,-0.5355 0.4639,-0.9697 1.0362,-0.9697 z m 25.7926,0 8.3139,0 c 3.0196,0 5.4698,0.7358 7.1878,2.0792 1.7713,1.385 2.7407,3.3772 2.7407,5.844 0,2.4669 -0.9694,4.4591 -2.7407,5.8441 -1.718,1.3434 -4.1682,2.0792 -7.1878,2.0792 l -4.2324,0 0,5.0719 c 0,0.5356 -0.4639,0.9697 -1.0361,0.9697 l -3.0454,0 c -0.5722,0 -1.0362,-0.4341 -1.0362,-0.9697 l 0,-19.9487 c 0,-0.5355 0.464,-0.9697 1.0362,-0.9697 z m 4.0815,11.4279 4.141,0 c 1.6918,0 2.9506,-0.3252 3.7607,-0.9354 0.7552,-0.5689 1.1415,-1.4386 1.1415,-2.5693 0,-1.1306 -0.3863,-2.0002 -1.1415,-2.5691 -0.8101,-0.6104 -2.0689,-0.9354 -3.7607,-0.9354 l -4.141,0 0,7.0092 z" />
  <path
     id="path10"
     style="fill:#676767;fill-rule:evenodd"
     d="m 132.4608,427.8315 326.3337,0.3742 0,-34.5225 c 0,-8.4534 8.9423,-15.3693 19.8724,-15.3693 l 0.001,0 c 10.9301,0 19.8723,6.9169 19.8723,15.3693 l 0,49.6822 c 0,8.452 -8.9434,15.3694 -19.8723,15.3694 l -0.001,0 c -0.5508,0 -1.0972,-0.0179 -1.6387,-0.0533 -0.0646,0.004 -4.0887,0.004 -11.1974,4e-4 l 6.1632,22.7347 -16.1473,0 -6.1661,-22.7448 c -64.6078,-0.0456 -227.3024,-0.2014 -308.0299,-0.2825 l -6.2426,23.0273 -16.1473,0 6.247,-23.0436 -12.0924,-0.0124 -0.4025,-0.004 -0.425,0.004 -7e-4,0 c -10.9301,0 -19.8729,-6.9164 -19.8729,-15.3698 l 0,-0.6406 0,-4e-4 0,-49.0408 c 0,-8.4534 8.9428,-15.3698 19.8729,-15.3698 l 7e-4,0 c 10.9302,0 19.8729,6.9183 19.8729,15.3698 l 0,34.5225 z" />
  <path
     id="path12"
     style="fill:#70b000;fill-rule:evenodd"
     d="m 335.3752,406.9907 c -9.9426,8.9783 -23.7947,14.3308 -39.6172,14.3308 -15.9188,0 -29.8117,-5.3642 -39.7883,-14.3249 -10.0778,-9.0514 -16.0771,-21.6905 -16.0771,-36.1203 0,-14.4297 5.9993,-27.0688 16.077,-36.1203 9.9766,-8.9606 23.8695,-14.3249 39.7884,-14.3249 15.8225,0 29.6746,5.3524 39.6172,14.3308 10.0088,9.0379 15.9869,21.6542 15.9869,36.1144 0,14.4603 -5.9782,27.0765 -15.9869,36.1144 z M 276.7188,388.284 c 4.6691,4.3052 11.313,6.8685 19.0297,6.8685 7.6015,0 14.1828,-2.563 18.8158,-6.8665 4.6072,-4.2796 7.3682,-10.3531 7.3682,-17.4097 0,-7.0566 -2.761,-13.1301 -7.3682,-17.4097 -4.633,-4.3036 -11.2143,-6.8666 -18.8158,-6.8666 -7.7167,0 -14.3606,2.5633 -19.0297,6.8686 -4.6332,4.2723 -7.3965,10.3459 -7.3965,17.4077 0,7.0617 2.7633,13.1353 7.3965,17.4077 z" />
</svg>
