<svg width="407" height="210" viewBox="0 0 407 210" fill="none" xmlns="http://www.w3.org/2000/svg">
<path fill-rule="evenodd" clip-rule="evenodd" d="M358.317 7.25211L358.449 93.8891C358.468 94.0906 358.478 94.2943 358.478 94.5005C358.478 98.2675 355.215 101.321 351.19 101.321H338.403V101.295C334.393 101.295 331.143 98.2528 331.143 94.5005L331.061 55.5443L311.096 86.9081C309.91 89.1699 307.424 90.7269 304.55 90.7269H298.401V90.7059C295.932 90.7039 293.526 89.5237 292.166 87.3964L271.97 55.894V94.5005C271.97 98.2675 268.707 101.321 264.681 101.321H251.895C247.869 101.321 244.606 98.2675 244.606 94.5005V90.5812C245.076 90.1847 245.54 89.7814 245.995 89.3705C256.663 79.7371 263.035 66.2895 263.035 50.8763C263.035 35.4632 256.663 22.0155 245.995 12.382C245.54 11.9711 245.076 11.5679 244.606 11.1714V7.25211C244.606 3.48511 247.869 0.431213 251.895 0.431213H262.817V0.443115C265.303 0.445115 267.724 1.64021 269.081 3.78851L301.717 55.1888L333.542 4.34131C334.709 2.03031 337.222 0.431213 340.135 0.431213H351.056V0.457886C355.066 0.457886 358.317 3.49981 358.317 7.25211Z" fill="#921DAD"/>
<path fill-rule="evenodd" clip-rule="evenodd" d="M56.9781 33.774C57.1725 24.7108 59.6235 16.9585 66.5066 10.5173C73.6928 3.7935 82.3615 0.431213 92.5116 0.431213H140.709H148.909H149.912V0.458099C153.922 0.458099 157.173 3.4998 157.173 7.2522L157.187 16.558C148.981 25.7565 144.22 37.6057 144.22 50.8763C144.22 66.257 150.614 79.729 161.356 89.3769C162.474 90.3804 163.638 91.3409 164.845 92.2576L164.863 93.8892C164.883 94.0904 164.893 94.2943 164.893 94.5004C164.893 98.2673 161.629 101.322 157.604 101.322H150.066H150.045H148.268H140.709V101.281L68.0584 101.197L65.4012 101.226V101.322H56.4807H56.0654C52.04 101.322 48.7763 98.2673 48.7763 94.5004C48.7763 94.2943 48.7867 94.0904 48.806 93.8892L48.9381 82.4238C48.9381 78.6714 52.1886 75.6296 56.1983 75.6296V75.6027H56.9781V36.9207C56.9473 36.1855 56.9411 35.5312 56.9654 34.9785C56.9654 34.5811 56.9694 34.1864 56.9781 33.7938V33.774ZM84.293 36.213V75.6027H129.93V26.1259H95.0722C92.1082 26.1259 89.5698 27.092 87.4593 29.0255C85.3488 30.9588 84.293 33.355 84.293 36.213Z" fill="#A9004B"/>
<path fill-rule="evenodd" clip-rule="evenodd" d="M25.9219 184.274L25.9522 204.137C25.9552 204.165 25.9562 204.194 25.9562 204.223C25.9562 204.759 25.4922 205.193 24.92 205.193H21.9964V205.189C21.4264 205.189 20.9643 204.756 20.9643 204.223L20.9411 193.187L15.1869 202.227C15.0182 202.549 14.6649 202.77 14.2562 202.77H12.8503V202.767C12.4992 202.767 12.1571 202.599 11.9639 202.297L6.17662 193.269V204.223C6.17662 204.758 5.71273 205.193 5.14043 205.193H2.21682C1.64462 205.193 1.18073 204.758 1.18073 204.223V184.274C1.18073 183.739 1.64462 183.304 2.21682 183.304H4.71402V183.306C5.06752 183.307 5.41172 183.477 5.60452 183.782L13.6114 196.392L21.4555 183.86C21.6215 183.532 21.9785 183.305 22.3924 183.305H24.8895V183.309C25.4595 183.309 25.9219 183.741 25.9219 184.274ZM40.1308 196.273V200.774H51.5198C52.0921 200.774 52.556 201.208 52.556 201.744V204.223C52.556 204.759 52.0921 205.193 51.5198 205.193H36.0493C35.4771 205.193 35.0132 204.759 35.0132 204.223V184.274C35.0132 183.739 35.4771 183.305 36.0493 183.305H51.0934C51.6657 183.305 52.1296 183.739 52.1296 184.274V186.754C52.1296 187.289 51.6657 187.723 51.0934 187.723H40.1308V191.911H49.7839C50.3562 191.911 50.8201 192.345 50.8201 192.881V195.303C50.8201 195.839 50.3562 196.273 49.7839 196.273H40.1308ZM69.9426 205.193H60.8065C60.2343 205.193 59.7704 204.759 59.7704 204.223V184.274C59.7704 183.739 60.2343 183.305 60.8065 183.305H76.886C77.4583 183.305 77.9222 183.739 77.9222 184.274V186.697C77.9222 187.232 77.4583 187.666 76.886 187.666H64.8576V191.427H70.4603C73.2331 191.427 75.3864 192.003 76.8802 193.11C78.4543 194.277 79.2622 195.973 79.2622 198.153C79.2622 200.417 78.3855 202.192 76.7179 203.414C75.127 204.579 72.8411 205.193 69.9426 205.193ZM64.8576 195.617V201.002H69.8208C71.3483 201.002 72.4818 200.747 73.1992 200.251C73.8232 199.82 74.1444 199.154 74.1444 198.267C74.1444 197.373 73.8413 196.73 73.2378 196.326C72.5259 195.85 71.3851 195.617 69.8208 195.617H64.8576ZM91.6552 196.273V200.774H103.044C103.616 200.774 104.08 201.208 104.08 201.744V204.223C104.08 204.759 103.616 205.193 103.044 205.193H87.5737C87.0014 205.193 86.5375 204.759 86.5375 204.223V184.274C86.5375 183.739 87.0014 183.305 87.5737 183.305H102.618C103.19 183.305 103.654 183.739 103.654 184.274V186.754C103.654 187.289 103.19 187.723 102.618 187.723H91.6552V191.911H101.308C101.88 191.911 102.344 192.345 102.344 192.881V195.303C102.344 195.839 101.88 196.273 101.308 196.273H91.6552ZM113.385 192.647L113.717 184.316L113.716 184.274C113.716 183.739 114.18 183.305 114.752 183.305H129.75C130.323 183.305 130.786 183.739 130.786 184.274V204.223C130.786 204.759 130.323 205.193 129.75 205.193H126.766C126.194 205.193 125.73 204.759 125.73 204.223V187.723H118.338L118.16 192.626C118.019 196.701 117.601 199.773 116.659 201.869C115.593 204.24 113.916 205.421 111.341 205.421C110.999 205.421 110.661 205.404 110.302 205.363C109.965 205.325 109.61 205.263 109.212 205.172C108.708 205.074 108.349 204.639 108.39 204.147L108.604 201.611C108.609 201.558 108.618 201.505 108.632 201.452C108.77 200.933 109.332 200.618 109.887 200.747C110.021 200.779 110.141 200.8 110.26 200.814C110.367 200.826 110.48 200.831 110.61 200.831C111.439 200.831 112.022 200.305 112.444 199.227C112.995 197.821 113.267 195.636 113.385 192.647ZM144.946 190.258H150.244C153.039 190.258 155.239 190.879 156.766 192.103C158.32 193.348 159.137 195.162 159.137 197.526C159.137 200.01 158.255 201.92 156.607 203.232C154.976 204.532 152.633 205.193 149.696 205.193H140.895C140.322 205.193 139.859 204.759 139.859 204.223V184.274C139.859 183.739 140.322 183.305 140.895 183.305H143.91C144.482 183.305 144.946 183.739 144.946 184.274V190.258ZM144.946 201.002H149.574C151.097 201.002 152.245 200.701 152.98 200.112C153.662 199.566 154.02 198.719 154.02 197.583C154.02 196.492 153.677 195.719 153.016 195.238C152.281 194.704 151.123 194.449 149.574 194.449H144.946V201.002ZM181.365 191.883V184.274C181.365 183.739 181.829 183.305 182.401 183.305H185.447C186.019 183.305 186.483 183.739 186.483 184.274V204.223C186.483 204.759 186.019 205.193 185.447 205.193H182.401C181.829 205.193 181.365 204.759 181.365 204.223V196.301H171.195V204.223C171.195 204.759 170.731 205.193 170.159 205.193H167.114C166.541 205.193 166.078 204.759 166.078 204.223V184.274C166.078 183.739 166.541 183.305 167.114 183.305H170.159C170.731 183.305 171.195 183.739 171.195 184.274V191.883H181.365ZM200.642 190.258H205.94C208.736 190.258 210.936 190.879 212.463 192.103C214.017 193.348 214.834 195.162 214.834 197.526C214.834 200.01 213.951 201.92 212.303 203.232C210.672 204.532 208.329 205.193 205.392 205.193H196.591C196.019 205.193 195.555 204.759 195.555 204.223V184.274C195.555 183.739 196.019 183.305 196.591 183.305H199.606C200.178 183.305 200.642 183.739 200.642 184.274V190.258ZM220.193 205.193H217.178C216.606 205.193 216.142 204.759 216.142 204.223V184.274C216.142 183.739 216.606 183.305 217.178 183.305H220.193C220.765 183.305 221.229 183.739 221.229 184.274V204.223C221.229 204.759 220.765 205.193 220.193 205.193ZM200.642 201.002H205.27C206.793 201.002 207.941 200.701 208.676 200.112C209.358 199.566 209.716 198.719 209.716 197.583C209.716 196.492 209.373 195.719 208.712 195.238C207.977 194.704 206.819 194.449 205.27 194.449H200.642V201.002ZM244.974 182.611C243.9 183.417 242.386 183.848 240.504 183.848C238.595 183.848 237.079 183.42 236.007 182.621C234.886 181.786 234.279 180.586 234.236 179.079C234.232 179.044 234.23 179.009 234.23 178.974C234.23 178.438 234.693 178.004 235.266 178.004H237.428V178.008C237.99 178.008 238.451 178.43 238.46 178.959C238.469 179.393 238.629 179.727 238.914 179.943C239.255 180.202 239.796 180.341 240.504 180.341C241.185 180.341 241.72 180.2 242.066 179.938C242.344 179.727 242.513 179.41 242.544 179.002L242.543 178.974C242.543 178.438 243.007 178.004 243.579 178.004H245.711V178.008L245.719 178.008C246.289 178.012 246.748 178.448 246.743 178.982C246.724 180.53 246.11 181.76 244.974 182.611ZM234.139 205.193H231.337C230.765 205.193 230.301 204.759 230.301 204.223V184.274C230.301 183.739 230.765 183.305 231.337 183.305H234.352C234.924 183.305 235.388 183.739 235.388 184.274V196.808L246.097 183.738C246.282 183.477 246.599 183.305 246.96 183.305H249.762C250.334 183.305 250.798 183.739 250.798 184.274V204.223C250.798 204.759 250.334 205.193 249.762 205.193H246.777C246.205 205.193 245.741 204.759 245.741 204.223V191.707L235.007 204.753C234.822 205.018 234.502 205.193 234.139 205.193ZM299.919 184.274V200.774H302.172C302.744 200.774 303.208 201.208 303.208 201.744V208.754C303.208 209.29 302.744 209.724 302.172 209.724H299.34C298.768 209.724 298.304 209.29 298.304 208.754V205.193H280.976C280.404 205.193 279.94 204.759 279.94 204.223V184.274C279.94 183.739 280.404 183.305 280.976 183.305H283.991C284.564 183.305 285.027 183.739 285.027 184.274V200.774H294.832V184.274C294.832 183.739 295.296 183.305 295.868 183.305H298.883C299.455 183.305 299.919 183.739 299.919 184.274ZM314.809 196.273V200.774H326.198C326.771 200.774 327.234 201.208 327.234 201.744V204.223C327.234 204.759 326.771 205.193 326.198 205.193H310.728C310.156 205.193 309.692 204.759 309.692 204.223V184.274C309.692 183.739 310.156 183.305 310.728 183.305H325.772C326.344 183.305 326.808 183.739 326.808 184.274V186.754C326.808 187.289 326.344 187.723 325.772 187.723H314.809V191.911H324.462C325.035 191.911 325.499 192.345 325.499 192.881V195.303C325.499 195.839 325.035 196.273 324.462 196.273H314.809ZM349.737 191.883V184.274C349.737 183.739 350.2 183.305 350.773 183.305H353.818C354.39 183.305 354.854 183.739 354.854 184.274V204.223C354.854 204.759 354.39 205.193 353.818 205.193H350.773C350.2 205.193 349.737 204.759 349.737 204.223V196.301H339.567V204.223C339.567 204.759 339.103 205.193 338.53 205.193H335.485C334.913 205.193 334.449 204.759 334.449 204.223V184.274C334.449 183.739 334.913 183.305 335.485 183.305H338.53C339.103 183.305 339.567 183.739 339.567 184.274V191.883H349.737ZM362.039 183.305H379.611C380.183 183.305 380.647 183.739 380.647 184.274V186.754C380.647 187.289 380.183 187.723 379.611 187.723H373.338V204.223C373.338 204.759 372.874 205.193 372.302 205.193H369.317C368.745 205.193 368.281 204.759 368.281 204.223V187.723H362.039C361.467 187.723 361.003 187.289 361.003 186.754V184.274C361.003 183.739 361.467 183.305 362.039 183.305ZM387.832 183.305H396.145C399.165 183.305 401.615 184.04 403.333 185.384C405.105 186.769 406.074 188.761 406.074 191.228C406.074 193.695 405.105 195.687 403.333 197.072C401.615 198.415 399.165 199.151 396.145 199.151H391.913V204.223C391.913 204.759 391.449 205.193 390.877 205.193H387.832C387.259 205.193 386.795 204.759 386.795 204.223V184.274C386.795 183.739 387.259 183.305 387.832 183.305ZM391.913 194.732H396.054C397.746 194.732 399.005 194.407 399.815 193.797C400.57 193.228 400.956 192.359 400.956 191.228C400.956 190.097 400.57 189.228 399.815 188.659C399.005 188.048 397.746 187.723 396.054 187.723H391.913V194.732Z" fill="#151616"/>
<path fill-rule="evenodd" clip-rule="evenodd" d="M40.4608 107.832L366.794 108.206V73.6832C366.794 65.2298 375.737 58.3139 386.667 58.3139H386.668C397.598 58.3139 406.54 65.2308 406.54 73.6832V123.365C406.54 131.817 397.597 138.735 386.668 138.735H386.667C386.116 138.735 385.57 138.717 385.028 138.681C384.964 138.685 380.94 138.685 373.831 138.682L379.994 161.417H363.847L357.681 138.672C293.073 138.626 130.378 138.47 49.6507 138.389L43.4081 161.417H27.2608L33.5078 138.373L21.4154 138.361L21.0129 138.357L20.5879 138.361C9.65779 138.361 0.714294 131.444 0.714294 122.991V122.35V73.309C0.714294 64.8556 9.65709 57.9392 20.5872 57.9392C31.5174 57.9392 40.4608 64.8575 40.4608 73.309V107.832Z" fill="#676767"/>
<path fill-rule="evenodd" clip-rule="evenodd" d="M243.375 86.9907C233.433 95.969 219.58 101.322 203.758 101.322C187.839 101.322 173.946 95.9573 163.97 86.9966C153.892 77.9452 147.893 65.3061 147.893 50.8763C147.893 36.4466 153.892 23.8075 163.97 14.756C173.946 5.79541 187.839 0.431091 203.758 0.431091C219.58 0.431091 233.433 5.7835 243.375 14.7619C253.384 23.7998 259.362 36.4161 259.362 50.8763C259.362 65.3366 253.384 77.9528 243.375 86.9907ZM184.719 68.284C189.388 72.5892 196.032 75.1525 203.748 75.1525C211.35 75.1525 217.931 72.5895 222.564 68.286C227.171 64.0064 229.932 57.9329 229.932 50.8763C229.932 43.8197 227.171 37.7462 222.564 33.4666C217.931 29.163 211.35 26.6 203.748 26.6C196.032 26.6 189.388 29.1633 184.719 33.4686C180.086 37.7409 177.322 43.8145 177.322 50.8763C177.322 57.938 180.086 64.0116 184.719 68.284Z" fill="#70B000"/>
</svg>
