<svg xmlns="http://www.w3.org/2000/svg" width="105" height="73" viewBox="0 0 105 73" fill="none">
  <g clip-path="url(#clip0_203_1072)">
    <path d="M42.4469 48.8362H39.4811V30.3231V30.2731H39.4311H25.0255H24.9769L24.9755 30.3216L24.7705 37.1348C24.712 38.7894 24.6145 40.3429 24.4779 41.7954C24.3415 43.2266 24.1271 44.4856 23.8353 45.5724L23.8351 45.573C23.5629 46.6384 23.1752 47.4685 22.674 48.0667L22.6739 48.0668C22.2866 48.5315 21.8128 48.7876 21.25 48.8362H20.1357H20.086L20.0857 48.886L20.0564 56.1537L20.0562 56.2039H20.1064H22.8295H22.8792L22.8795 56.1542L22.9084 51.5707H39.6739V56.1539V56.2039H39.7239H42.4469H42.4969V56.1539V48.8862V48.8362H42.4469ZM36.4824 48.8362H25.1146C25.3014 48.6462 25.4714 48.4189 25.6248 48.1546C26.0578 47.442 26.3912 46.5381 26.6262 45.4445L26.6262 45.4443C26.8609 44.3317 27.0369 43.0882 27.1541 41.7139C27.2908 40.3401 27.3884 38.9058 27.4471 37.4111L27.4471 37.4108L27.5919 33.0076H36.4824V48.8362Z" fill="#262626" stroke="#262626" stroke-width="0.1"/>
    <path d="M45.7321 52.0994L45.7323 52.0997C46.4665 53.3735 47.4661 54.3763 48.7307 55.1073C49.9961 55.8388 51.4443 56.2039 53.0738 56.2039C54.6831 56.2039 56.1211 55.8387 57.3863 55.1074C58.6711 54.3764 59.671 53.3735 60.385 52.0994C61.1196 50.8246 61.4862 49.3628 61.4862 47.7152C61.4862 46.0472 61.1197 44.5852 60.3849 43.3309C59.6709 42.0568 58.671 41.0642 57.386 40.3541C56.1209 39.6228 54.683 39.2577 53.0738 39.2577C51.4444 39.2577 49.9963 39.6227 48.731 40.3542C47.4662 41.0644 46.4665 42.0569 45.7323 43.3308L45.7756 43.3558L45.7323 43.3308C44.9976 44.6056 44.6309 46.0676 44.6309 47.7152C44.6309 49.3423 44.9977 50.8041 45.7321 52.0994ZM55.8161 52.7786L55.8156 52.7789C55.0132 53.2514 54.0997 53.4882 53.0738 53.4882C52.0479 53.4882 51.1344 53.2514 50.332 52.7789L50.3066 52.822L50.332 52.7789C49.5292 52.3063 48.8867 51.6384 48.4042 50.7738C47.9222 49.8896 47.6806 48.8705 47.6806 47.7152C47.6806 46.5389 47.9224 45.5306 48.4038 44.6884L48.4041 44.688C48.8866 43.8234 49.5292 43.1553 50.332 42.6826C51.1344 42.2101 52.0479 41.9734 53.0738 41.9734C54.0997 41.9734 55.0132 42.2101 55.8156 42.6826L55.8161 42.6829C56.6389 43.1556 57.2811 43.8233 57.7431 44.6872L57.7433 44.6876C58.2048 45.5299 58.4366 46.5385 58.4366 47.7152C58.4366 48.8708 58.2049 49.8902 57.743 50.7745C57.281 51.6384 56.6388 52.306 55.8161 52.7786Z" fill="#262626" stroke="#262626" stroke-width="0.1"/>
    <path d="M64.7372 55.0308V55.0808H64.7872H67.3613H67.4113V55.0308V44.5095L73.0525 53.4047L73.0673 53.4279H73.0948H74.3232H74.3505L74.3653 53.405L80.0647 44.5507V55.0308V55.0808H80.1147H82.6596H82.7096V55.0308V40.4308V40.3808H82.6596H80.0268H79.9993L79.9846 40.404L73.7753 50.1999L67.7256 40.4045L67.711 40.3808H67.6831H64.7872H64.7372V40.4308V55.0308Z" fill="#262626" stroke="#262626" stroke-width="0.1"/>
    <path d="M0.527368 70.4766V70.5016H0.552368H1.52714H1.55214V70.4766V66.1053L3.67654 69.799L3.68375 69.8115H3.69821H4.16345H4.1778L4.18504 69.7991L6.33168 66.1222V70.4766V70.5016H6.35668H7.3204H7.3454V70.4766V64.3805V64.3555H7.3204H6.32345H6.30899L6.30178 64.368L3.95615 68.4483L1.67079 64.3683L1.66363 64.3555H1.64898H0.552368H0.527368V64.3805V70.4766Z" fill="#262626" stroke="#262626" stroke-width="0.05"/>
    <path d="M10.3303 70.1647L10.3305 70.1648C10.8147 70.4356 11.3728 70.5705 12.0042 70.5705C12.4945 70.5705 12.9373 70.4856 13.3323 70.3155C13.7345 70.1453 14.0701 69.8975 14.3386 69.5722L14.3517 69.5563L14.3386 69.5404L13.7515 68.8274L13.7327 68.8046L13.7133 68.8268C13.5016 69.0694 13.2536 69.2512 12.9692 69.3724L12.969 69.3724C12.6919 69.4935 12.3815 69.5544 12.0374 69.5544C11.6201 69.5544 11.2514 69.467 10.9306 69.2929C10.6097 69.1187 10.3583 68.8766 10.1761 68.5663C10.0513 68.3395 9.97093 68.0913 9.9351 67.8215H14.6737H14.6955L14.6985 67.7999C14.706 67.7454 14.7097 67.6873 14.7098 67.6255C14.7172 67.5641 14.7209 67.5098 14.7209 67.463C14.7209 66.8309 14.5947 66.2785 14.3414 65.8065C14.0957 65.3273 13.7529 64.9557 13.3131 64.6925L13.3131 64.6925C12.873 64.4292 12.3663 64.2979 11.7938 64.2979C11.2284 64.2979 10.718 64.4332 10.2635 64.704C9.81641 64.967 9.46251 65.3346 9.20197 65.806L9.20197 65.806L9.20182 65.8063C8.94855 66.2782 8.82229 66.8191 8.82229 67.4284C8.82229 68.0379 8.95234 68.579 9.21312 69.0508L9.21326 69.0511C9.48132 69.5228 9.85381 69.8941 10.3303 70.1647ZM13.4553 66.2323L13.4332 66.244C13.5507 66.4658 13.6234 66.7104 13.6508 66.9778H9.9328C9.9654 66.7132 10.0393 66.4725 10.1543 66.2554L10.1544 66.2552C10.3148 65.9448 10.5369 65.7069 10.8205 65.5407L10.8206 65.5407L10.821 65.5404C11.1046 65.3667 11.4287 65.2796 11.7938 65.2796C12.1663 65.2796 12.4902 65.3668 12.7663 65.5403L12.7663 65.5403L12.767 65.5407C13.0508 65.707 13.2728 65.9412 13.4332 66.244L13.4553 66.2323Z" fill="#262626" stroke="#262626" stroke-width="0.05"/>
    <path d="M17.7535 70.35L17.7536 70.3501C18.1338 70.5127 18.5693 70.5936 19.0594 70.5936C19.6904 70.5936 20.2411 70.4703 20.7105 70.2227L20.7108 70.2225C21.1798 69.9675 21.5414 69.6192 21.7949 69.1779C22.0558 68.7291 22.186 68.2224 22.186 67.6586C22.186 67.1027 22.0632 66.6076 21.8172 66.174C21.5713 65.7407 21.2321 65.4001 20.8 65.1525C20.3748 64.9047 19.8867 64.7811 19.3364 64.7811C18.8973 64.7811 18.4911 64.87 18.1183 65.048C17.7531 65.2184 17.4399 65.4622 17.1792 65.7794C17.1363 65.8317 17.0952 65.8854 17.0561 65.9406C17.0813 65.6446 17.1295 65.384 17.2003 65.1587L17.2003 65.1585C17.3104 64.8004 17.4567 64.5121 17.6386 64.293C17.8217 64.0725 18.0189 63.902 18.23 63.7811L18.2301 63.7811L18.2306 63.7808C18.4432 63.6513 18.6517 63.5565 18.8561 63.4958L18.8561 63.4958C19.0625 63.4346 19.2389 63.3888 19.3858 63.3583L19.3858 63.3583L19.3861 63.3582L21.8563 62.8061L21.8791 62.801L21.8756 62.778L21.7205 61.7543L21.7165 61.7276L21.6901 61.7337L19.0097 62.3547C19.0096 62.3548 19.0096 62.3548 19.0096 62.3548C18.6312 62.4396 18.2822 62.5628 17.9627 62.7249C17.6504 62.8793 17.3678 63.0763 17.1148 63.3157L17.1148 63.3157L17.1146 63.3159C16.8689 63.5556 16.6606 63.8376 16.4896 64.1618L16.4896 64.1618L16.4894 64.1622C16.3258 64.4865 16.1997 64.8567 16.1107 65.2724L16.1107 65.2725C16.0216 65.6886 15.9772 66.1581 15.9772 66.681C15.9772 67.342 16.0438 67.9194 16.1775 68.4128L16.1775 68.4128L16.1776 68.4132C16.3187 68.8989 16.5231 69.3048 16.7916 69.6299L16.7917 69.6301C17.06 69.9474 17.3807 70.1874 17.7535 70.35ZM20.1434 66.0699L20.1438 66.0702C20.4279 66.229 20.6499 66.4481 20.8101 66.7278C20.9701 67.0073 21.0504 67.3288 21.0504 67.6931C21.0504 68.0573 20.9701 68.3867 20.8099 68.6817C20.6496 68.9692 20.4275 69.1999 20.1432 69.374C19.8596 69.5401 19.5318 69.6235 19.1591 69.6235C18.7792 69.6235 18.4441 69.5363 18.153 69.3625C17.8688 69.1885 17.643 68.9541 17.4752 68.6588C17.3149 68.3559 17.2346 68.0228 17.2346 67.6586C17.2346 67.2944 17.3149 66.9768 17.4748 66.7051L17.475 66.7048C17.635 66.4254 17.8604 66.2102 18.1515 66.059L18.1516 66.059L18.152 66.0588C18.4434 65.8999 18.7715 65.8203 19.137 65.8203C19.5247 65.8203 19.8599 65.9038 20.1434 66.0699Z" fill="#262626" stroke="#262626" stroke-width="0.05"/>
    <path d="M24.62 70.1647L24.6202 70.1648C25.1044 70.4356 25.6626 70.5705 26.2939 70.5705C26.7842 70.5705 27.227 70.4856 27.6219 70.3155C28.0242 70.1453 28.3598 69.8975 28.6283 69.5722L28.6414 69.5563L28.6283 69.5404L28.0412 68.8274L28.0225 68.8046L28.0031 68.8268C27.7913 69.0694 27.5433 69.2512 27.2588 69.3724L27.2586 69.3724C26.9816 69.4935 26.6713 69.5544 26.3272 69.5544C25.9098 69.5544 25.5411 69.467 25.2203 69.2929C24.8994 69.1187 24.6481 68.8766 24.4658 68.5663C24.3411 68.3395 24.2606 68.0913 24.2248 67.8215H28.9635H28.9852L28.9882 67.7999C28.9957 67.7454 28.9995 67.6873 28.9995 67.6255C29.0069 67.5641 29.0106 67.5098 29.0106 67.463C29.0106 66.8309 28.8844 66.2785 28.6311 65.8065C28.3854 65.3273 28.0426 64.9557 27.6027 64.6925L27.5899 64.7139L27.6027 64.6925C27.1627 64.4292 26.6561 64.2979 26.0834 64.2979C25.518 64.2979 25.0078 64.4332 24.5532 64.704C24.1061 64.967 23.7523 65.3346 23.4917 65.806L23.4917 65.806L23.4916 65.8063C23.2383 66.2782 23.112 66.8191 23.112 67.4284C23.112 68.0379 23.242 68.579 23.5028 69.0508L23.5029 69.0511C23.7711 69.5228 24.1436 69.8941 24.62 70.1647ZM27.745 66.2323L27.7229 66.244C27.8404 66.4658 27.9131 66.7104 27.9406 66.9778H24.2225C24.2551 66.7132 24.329 66.4725 24.444 66.2554L24.4441 66.2552C24.6046 65.9448 24.8266 65.7069 25.1102 65.5407L25.1102 65.5407L25.1106 65.5404C25.3944 65.3667 25.7184 65.2796 26.0834 65.2796C26.456 65.2796 26.7799 65.3668 27.056 65.5403L27.056 65.5403L27.0567 65.5407C27.3405 65.707 27.5625 65.9412 27.7229 66.244L27.745 66.2323Z" fill="#262626" stroke="#262626" stroke-width="0.05"/>
    <path d="M29.5368 70.4844L29.5383 70.4633L29.6047 69.5316L29.6067 69.5047L29.6333 69.5087C29.6852 69.5164 29.7334 69.5241 29.7779 69.5318L29.778 69.5318C29.8211 69.5393 29.8603 69.5429 29.8955 69.5429C30.125 69.5429 30.3021 69.4615 30.4297 69.2995L30.4301 69.2989L30.4301 69.2989C30.5674 69.1339 30.6694 68.9154 30.7352 68.642C30.8013 68.3597 30.8492 68.0427 30.8786 67.691L30.8786 67.691C30.9081 67.3386 30.9302 66.9862 30.945 66.6338L30.945 66.6338L31.0447 64.3794L31.0458 64.3555H31.0697H35.578H35.603V64.3805V70.4766V70.5016H35.578H34.5146H34.4896V70.4766V65.3716H32.0087L31.9475 66.705C31.9475 66.705 31.9475 66.705 31.9475 66.705C31.9254 67.2424 31.8848 67.7453 31.8255 68.2139C31.8255 68.2139 31.8255 68.2139 31.8255 68.2139L31.8007 68.2107C31.7417 68.6784 31.6494 69.0887 31.5239 69.4414L29.5368 70.4844ZM29.5368 70.4844L29.5573 70.4894C29.6831 70.5201 29.7981 70.5433 29.9022 70.5587C30.0141 70.5819 30.119 70.5936 30.2167 70.5936C30.5544 70.5936 30.8304 70.4922 31.0426 70.2877C31.2603 70.0849 31.4284 69.8051 31.5475 69.4496L29.5368 70.4844Z" fill="#262626" stroke="#262626" stroke-width="0.05"/>
    <path d="M40.3481 66.4259L40.348 66.4259L38.7224 66.4146V64.3805V64.3555H38.6974H37.634H37.609V64.3805V70.4766V70.5015L37.6339 70.5016L40.1815 70.5131C40.9677 70.5208 41.5798 70.3476 42.0143 69.9898L42.0145 69.9897C42.4494 69.6237 42.6658 69.1061 42.6658 68.4408C42.6658 67.8064 42.4681 67.312 42.0703 66.9612C41.6728 66.6108 41.0974 66.4336 40.3481 66.4259ZM40.0935 69.6235L40.0933 69.6235L38.7224 69.6121V67.2699L40.0927 67.2925L40.0927 67.2925C40.5777 67.3001 40.9371 67.3956 41.1747 67.5751L41.1747 67.5751C41.4103 67.753 41.5303 68.0357 41.5303 68.4292C41.5303 68.8302 41.4066 69.129 41.1627 69.3301L41.1625 69.3303C40.9253 69.5319 40.5704 69.6311 40.0935 69.6235Z" fill="#262626" stroke="#262626" stroke-width="0.05"/>
    <path d="M43.9805 70.4766V70.5016H44.0055H45.0689H45.0939V70.4766V67.9482H48.3891V70.4766V70.5016H48.4141H49.4775H49.5025V70.4766V64.3805V64.3555H49.4775H48.4141H48.3891V64.3805V66.9435H45.0939V64.3805V64.3555H45.0689H44.0055H43.9805V64.3805V70.4766Z" fill="#262626" stroke="#262626" stroke-width="0.05"/>
    <path d="M54.1927 66.4259L54.1928 66.4259C54.942 66.4336 55.5138 66.6107 55.904 66.9613C56.3018 67.3121 56.4994 67.8064 56.4994 68.4408C56.4994 69.1061 56.283 69.6237 55.8481 69.9897L55.848 69.9897C55.4209 70.3476 54.8087 70.5208 54.0152 70.5131L54.0152 70.5131L54.1927 66.4259ZM54.1927 66.4259L52.6335 66.4146V64.3805V64.3555H52.6085H51.5452H51.5202V64.3805V70.4766V70.5015L51.5451 70.5016L54.0151 70.5131L54.1927 66.4259ZM57.3245 70.4766V70.5016H57.3495H58.4129H58.4379V70.4766V64.3805V64.3555H58.4129H57.3495H57.3245V64.3805V70.4766ZM53.9382 69.6235L53.938 69.6235L52.6335 69.6121V67.2699L53.9374 67.2925L53.9374 67.2925C54.4149 67.3001 54.7706 67.3956 55.0083 67.5751L55.0085 67.5753C55.2514 67.7533 55.375 68.036 55.375 68.4292C55.375 68.8302 55.2513 69.129 55.0074 69.3301C54.7626 69.532 54.4075 69.6311 53.9382 69.6235Z" fill="#262626" stroke="#262626" stroke-width="0.05"/>
    <path d="M60.4552 70.4766V70.5016H60.4802H61.455H61.4669L61.4744 70.4923L65.0189 66.1074V70.4766V70.5016H65.0439H66.1073H66.1323V70.4766V64.3804V64.3554H66.1073H65.1436H65.1317L65.1242 64.3647L61.5686 68.7497V64.3804V64.3554H61.5436H60.4802H60.4552V64.3804V70.4766ZM61.9366 63.2027L61.9366 63.2027L61.9371 63.2031C62.253 63.4765 62.6841 63.6118 63.2273 63.6118C63.7705 63.6118 64.2015 63.4765 64.5175 63.2031L64.5178 63.2029C64.8343 62.9211 64.995 62.5188 65.0025 61.9999L65.0028 61.9745H64.9775H64.2353H64.2109L64.2103 61.9989C64.203 62.2846 64.1092 62.5078 63.9304 62.6711C63.7514 62.8348 63.5141 62.9177 63.2162 62.9177C62.9184 62.9177 62.6813 62.8348 62.5022 62.6713C62.3307 62.508 62.2405 62.2849 62.2332 61.9989L62.2326 61.9745H62.2082H61.4882H61.4629L61.4632 61.9999C61.4706 62.5186 61.6275 62.9208 61.9366 63.2027Z" fill="#262626" stroke="#262626" stroke-width="0.05"/>
    <path d="M71.1211 70.4766V70.5016H71.1461H75.3966H75.4216H76.3826V71.8914V71.9164H76.4076H77.4159H77.4409V71.8914V69.5104V69.4854H77.4159H76.5103V64.3805V64.3555H76.4853H75.4216H75.3966V64.3805V69.4854H72.2348V64.3805V64.3555H72.2098H71.1461H71.1211V64.3805V70.4766Z" fill="#262626" stroke="#262626" stroke-width="0.05"/>
    <path d="M79.7344 70.1647L79.7345 70.1648C80.2185 70.4356 80.7765 70.5705 81.408 70.5705C81.8985 70.5705 82.3414 70.4856 82.7361 70.3155C83.1381 70.1453 83.4736 69.8975 83.7424 69.5722L83.7555 69.5563L83.7424 69.5404L83.1555 68.8274L83.1368 68.8046L83.1174 68.8268C82.9055 69.0694 82.6575 69.2512 82.3727 69.3723L82.3725 69.3724C82.0956 69.4935 81.7855 69.5544 81.4411 69.5544C81.024 69.5544 80.6549 69.467 80.3347 69.2929L80.3347 69.2929C80.0137 69.1187 79.7625 68.8766 79.58 68.5663C79.455 68.3395 79.3746 68.0913 79.3388 67.8215H84.0776H84.0995L84.1024 67.7998C84.1097 67.7454 84.1134 67.6873 84.1134 67.6256C84.1213 67.5641 84.1249 67.5098 84.1249 67.463C84.1249 66.8309 83.9984 66.2785 83.7452 65.8065C83.4994 65.3273 83.1568 64.9557 82.7168 64.6925L82.704 64.7139L82.7168 64.6925C82.2767 64.4292 81.7702 64.2979 81.1973 64.2979C80.6322 64.2979 80.1222 64.4332 79.6671 64.704C79.2201 64.967 78.8661 65.3346 78.6058 65.8061L78.6058 65.8061L78.6057 65.8063C78.3525 66.2782 78.2259 66.8191 78.2259 67.4284C78.2259 68.0379 78.3561 68.579 78.6173 69.0509L78.6175 69.0511C78.8851 69.5228 79.258 69.8941 79.7344 70.1647ZM82.8593 66.2323L82.8373 66.244C82.9548 66.4658 83.0272 66.7104 83.0546 66.9778H79.3365C79.3691 66.7132 79.4431 66.4725 79.5581 66.2554L79.5582 66.2552C79.7187 65.9448 79.9406 65.7069 80.2247 65.5407L80.2247 65.5407L80.2251 65.5404C80.5085 65.3667 80.8326 65.2796 81.1973 65.2796C81.5701 65.2796 81.894 65.3668 82.17 65.5403L82.17 65.5403L82.1707 65.5407C82.4549 65.707 82.6768 65.9412 82.8373 66.244L82.8593 66.2323Z" fill="#262626" stroke="#262626" stroke-width="0.05"/>
    <path d="M85.7248 70.4766V70.5016H85.7498H86.8127H86.8377V70.4766V67.9482H90.1333V70.4766V70.5016H90.1583H91.2213H91.2463V70.4766V64.3805V64.3555H91.2213H90.1583H90.1333V64.3805V66.9435H86.8377V64.3805V64.3555H86.8127H85.7498H85.7248V64.3805V70.4766Z" fill="#262626" stroke="#262626" stroke-width="0.05"/>
    <path d="M94.4275 70.4766V70.5016H94.4525H95.5154H95.5404V70.4766V65.3716H97.6643H97.6893V65.3466V64.3805V64.3555H97.6643H92.3036H92.2786V64.3805V65.3466V65.3716H92.3036H94.4275V70.4766Z" fill="#262626" stroke="#262626" stroke-width="0.05"/>
    <path d="M100.512 70.222L100.512 70.2222C100.922 70.4545 101.373 70.5705 101.864 70.5705C102.444 70.5705 102.959 70.4392 103.406 70.176C103.853 69.9129 104.207 69.5454 104.467 69.0738C104.728 68.6019 104.858 68.0531 104.858 67.4284C104.858 66.8038 104.728 66.2589 104.467 65.7945C104.207 65.323 103.853 64.9555 103.406 64.6924L103.393 64.7139L103.406 64.6924C102.959 64.4292 102.444 64.2979 101.864 64.2979C101.358 64.2979 100.9 64.4139 100.49 64.6462L100.49 64.6463C100.222 64.8007 99.9907 65.0062 99.7958 65.2624V64.3804V64.3554H99.7708H98.7517H98.7267V64.3804V72.7079V72.7329H98.7517H99.8154H99.8404V72.7079V69.6308C100.032 69.8727 100.256 70.0698 100.512 70.222ZM102.772 69.2932L102.771 69.2934C102.48 69.4672 102.149 69.5544 101.776 69.5544C101.411 69.5544 101.079 69.4673 100.78 69.2933C100.49 69.1194 100.256 68.8737 100.081 68.5554C99.913 68.2298 99.8289 67.8544 99.8289 67.4284C99.8289 66.9946 99.9131 66.6232 100.081 66.3132C100.256 65.9949 100.49 65.7491 100.78 65.5752C101.079 65.4012 101.411 65.3141 101.776 65.3141C102.149 65.3141 102.48 65.4013 102.771 65.5751L102.772 65.5753C103.07 65.7492 103.303 65.9948 103.47 66.3129L103.47 66.3129L103.471 66.3135C103.646 66.6235 103.734 66.9948 103.734 67.4284C103.734 67.8544 103.646 68.2297 103.471 68.5553L103.47 68.5555C103.303 68.8736 103.07 69.1193 102.772 69.2932Z" fill="#262626" stroke="#262626" stroke-width="0.05"/>
    <path d="M90.09 25.2555C91.7628 26.3776 92.231 27.2678 92.2475 29.273V26.7164L90.09 25.2555Z" fill="#262626"/>
    <path d="M10.9805 27.5205V29.2731C10.9888 27.9755 11.2796 27.3625 12.5742 26.5819L10.9805 27.5205Z" fill="#262626"/>
    <path d="M54.4907 1.89795L51.614 3.59199C53.8134 2.29643 55.0128 2.22878 57.082 3.59199L54.4907 1.89795Z" fill="#262626"/>
    <path d="M7.38452 29.638L10.9804 27.5204M10.9804 27.5204V29.273M10.9804 27.5204L12.5742 26.5818M95.4839 28.908L92.2475 26.7164M92.2475 26.7164V26.5818M92.2475 26.7164V29.273M92.2475 26.7164L90.09 25.2555M83.5225 20.878L86.4941 22.8205M83.5225 20.878L57.082 3.59199M83.5225 20.878V16.498M86.4941 22.8205L90.09 25.2555M86.4941 22.8205V16.498M57.082 3.59199L54.4907 1.89795L51.614 3.59199M57.082 3.59199C55.0127 2.22878 53.8134 2.29643 51.614 3.59199M83.5225 16.498V15.768H84.3366M83.5225 16.498C83.6541 16.0592 83.8375 15.904 84.3366 15.768M90.09 25.2555C91.7628 26.3776 92.231 27.2678 92.2475 29.273M86.4941 16.498V15.768H85.7749M86.4941 16.498C86.3826 16.0992 86.2518 15.9219 85.7749 15.768M10.9804 29.273V58.108M10.9804 29.273C10.9888 27.9754 11.2796 27.3624 12.5742 26.5818M12.5742 26.5818L51.614 3.59199M92.2475 58.108V29.273M84.3366 15.768H85.7749" stroke="#262626" stroke-width="1.7"/>
  </g>
  <defs>
    <clipPath id="clip0_203_1072">
      <rect width="105" height="73" fill="white"/>
    </clipPath>
  </defs>
</svg>