<svg
xmlns="http://www.w3.org/2000/svg"
width="94"
height="66"
viewBox="0 0 94 66"
fill="none"
>
<g clipPath="url(#clip0_6_459)">
  <path
    d="M31.9344 44.9191V28.961H23.1852L23.0428 33.1056C22.9857 34.4965 22.8908 35.8311 22.7577 37.1092C22.6438 38.3874 22.4728 39.5434 22.2448 40.5772C22.0168 41.5922 21.6938 42.4286 21.2758 43.0865C20.8768 43.7444 20.3638 44.1485 19.7369 44.2988L16.659 43.7914C17.4 43.8477 18.008 43.6034 18.4829 43.0583C18.9769 42.4944 19.3569 41.7144 19.6229 40.7181C19.9079 39.7031 20.1168 38.5283 20.2499 37.1938C20.3829 35.8404 20.4778 34.3931 20.5348 32.8518L20.7344 26.5081H34.7557V44.9191H31.9344ZM15.9465 50.5581L15.9751 43.7914H37.6911V50.5581H35.0408V46.2443H18.6254L18.5969 50.5581H15.9465Z"
    fill="white"
  />
  <path
    d="M47.2664 50.5253C45.7465 50.5253 44.3976 50.1963 43.2196 49.5384C42.0416 48.8806 41.1107 47.9783 40.4267 46.8318C39.7428 45.6664 39.4008 44.3507 39.4008 42.8845C39.4008 41.3996 39.7428 40.0839 40.4267 38.9373C41.1107 37.7907 42.0416 36.8978 43.2196 36.2588C44.3976 35.6009 45.7465 35.272 47.2664 35.272C48.7673 35.272 50.1068 35.6009 51.2847 36.2588C52.4817 36.8978 53.4127 37.7907 54.0776 38.9373C54.7616 40.0651 55.1036 41.3808 55.1036 42.8845C55.1036 44.3694 54.7616 45.6852 54.0776 46.8318C53.4127 47.9783 52.4817 48.8806 51.2847 49.5384C50.1068 50.1963 48.7673 50.5253 47.2664 50.5253ZM47.2664 48.1569C48.2354 48.1569 49.0999 47.9407 49.8598 47.5084C50.6388 47.0761 51.2468 46.4652 51.6837 45.6757C52.1208 44.8675 52.3392 43.9371 52.3392 42.8845C52.3392 41.8131 52.1208 40.8921 51.6837 40.1214C51.2468 39.332 50.6388 38.7211 49.8598 38.2888C49.0999 37.8564 48.2354 37.6403 47.2664 37.6403C46.2975 37.6403 45.433 37.8564 44.6731 38.2888C43.9131 38.7211 43.3051 39.332 42.8491 40.1214C42.3931 40.8921 42.1651 41.8131 42.1651 42.8845C42.1651 43.9371 42.3931 44.8675 42.8491 45.6757C43.3051 46.4652 43.9131 47.0761 44.6731 47.5084C45.433 47.9407 46.2975 48.1569 47.2664 48.1569Z"
    fill="white"
  />
  <path
    d="M59.0543 50.3562V35.4131H61.8757L68.3735 46.4654H67.2332L73.9021 35.4131H76.4671V50.3562H73.9877V38.4581L74.4435 38.7118L68.3451 48.6645H67.1482L61.0208 38.5145L61.5623 38.4017V50.3562H59.0543Z"
    fill="white"
  />
  <path
    d="M0.494507 62.8712V57.4431H1.47624L3.7372 61.4578H3.34054L5.661 57.4431H6.55351V62.8712H5.69075V58.5492L5.84941 58.6414L3.72729 62.2567H3.31079L1.17875 58.5697L1.36716 58.5287V62.8712H0.494507Z"
    fill="white"
  />
  <path
    d="M10.7466 62.9328C10.1847 62.9328 9.68883 62.8134 9.25914 62.5743C8.83601 62.3354 8.50546 62.0077 8.2675 61.5912C8.03611 61.1747 7.92041 60.6968 7.92041 60.1573C7.92041 59.6179 8.03276 59.14 8.25752 58.7235C8.48892 58.307 8.80298 57.9827 9.19965 57.7506C9.60288 57.5116 10.0558 57.3921 10.5582 57.3921C11.0672 57.3921 11.5167 57.5082 11.9068 57.7403C12.2969 57.9725 12.601 58.3002 12.8192 58.7235C13.0439 59.14 13.1563 59.6282 13.1563 60.1881C13.1563 60.229 13.153 60.2769 13.1464 60.3315C13.1464 60.3861 13.1431 60.4373 13.1364 60.485H8.6641V59.7784H12.6406L12.2539 60.0242C12.2605 59.676 12.1911 59.3653 12.0457 59.0922C11.9002 58.8191 11.6986 58.6075 11.4408 58.4572C11.1896 58.3002 10.8953 58.2217 10.5582 58.2217C10.2277 58.2217 9.93343 58.3002 9.67563 58.4572C9.41778 58.6075 9.21613 58.8225 9.07069 59.1024C8.92524 59.3756 8.85256 59.6896 8.85256 60.0447V60.2085C8.85256 60.5704 8.93188 60.8947 9.09052 61.1815C9.25579 61.4614 9.4839 61.6799 9.77479 61.837C10.0657 61.994 10.3995 62.0725 10.7763 62.0725C11.0871 62.0725 11.368 62.0179 11.6192 61.9087C11.8771 61.7994 12.1019 61.6355 12.2935 61.4171L12.8192 62.052C12.5811 62.3388 12.2836 62.5573 11.9267 62.7075C11.5763 62.8577 11.1829 62.9328 10.7466 62.9328Z"
    fill="white"
  />
  <path
    d="M17.0628 62.9532C16.6264 62.9532 16.2397 62.8815 15.9026 62.7381C15.572 62.5947 15.2877 62.3831 15.0497 62.1031C14.8117 61.8164 14.63 61.4579 14.5043 61.0278C14.3853 60.5908 14.3258 60.0787 14.3258 59.4916C14.3258 59.0273 14.3655 58.6107 14.4448 58.2421C14.5242 57.8734 14.6365 57.5457 14.782 57.2589C14.934 56.9721 15.1191 56.7229 15.3373 56.5112C15.5621 56.2996 15.8133 56.1255 16.0909 55.9889C16.3752 55.8455 16.6859 55.7363 17.0231 55.6612L19.4229 55.1082L19.5617 56.0196L17.3504 56.5112C17.2181 56.5385 17.0595 56.5795 16.8744 56.6342C16.6893 56.6888 16.5008 56.7741 16.3091 56.8902C16.1174 56.9994 15.9389 57.1531 15.7736 57.351C15.6083 57.549 15.4761 57.8085 15.377 58.1294C15.2778 58.4435 15.2282 58.8327 15.2282 59.2969C15.2282 59.4267 15.2316 59.5257 15.2381 59.5939C15.2448 59.6622 15.2514 59.7305 15.258 59.7988C15.2712 59.8671 15.2811 59.9695 15.2877 60.1061L14.891 59.6861C14.9968 59.3106 15.1654 58.9829 15.3968 58.7029C15.6282 58.423 15.9058 58.2079 16.2298 58.0577C16.5603 57.9007 16.9207 57.8222 17.3107 57.8222C17.7999 57.8222 18.2329 57.9314 18.6098 58.1499C18.9932 58.3684 19.294 58.6688 19.5122 59.0512C19.7303 59.4335 19.8394 59.8705 19.8394 60.3621C19.8394 60.8605 19.7237 61.3077 19.4923 61.7037C19.2676 62.0929 18.9469 62.4002 18.5304 62.6255C18.1139 62.8439 17.6247 62.9532 17.0628 62.9532ZM17.152 62.1339C17.4892 62.1339 17.7867 62.0588 18.0445 61.9086C18.3023 61.7515 18.504 61.5433 18.6494 61.2838C18.7949 61.0176 18.8676 60.7205 18.8676 60.3928C18.8676 60.0651 18.7949 59.7749 18.6494 59.5222C18.504 59.2697 18.3023 59.0717 18.0445 58.9283C17.7867 58.7781 17.4826 58.7029 17.1322 58.7029C16.8016 58.7029 16.5042 58.7746 16.2397 58.918C15.9752 59.0546 15.7703 59.2492 15.6249 59.5018C15.4794 59.7476 15.4067 60.0344 15.4067 60.3621C15.4067 60.6898 15.4794 60.9902 15.6249 61.2633C15.7769 61.5296 15.9819 61.7413 16.2397 61.8983C16.5042 62.0554 16.8082 62.1339 17.152 62.1339Z"
    fill="white"
  />
  <path
    d="M23.5394 62.9328C22.9774 62.9328 22.4816 62.8134 22.0519 62.5743C21.6288 62.3354 21.2983 62.0077 21.0602 61.5912C20.8288 61.1747 20.7131 60.6968 20.7131 60.1573C20.7131 59.6179 20.8255 59.14 21.0503 58.7235C21.2817 58.307 21.5957 57.9827 21.9924 57.7506C22.3957 57.5116 22.8485 57.3921 23.3509 57.3921C23.86 57.3921 24.3095 57.5082 24.6996 57.7403C25.0896 57.9725 25.3938 58.3002 25.6119 58.7235C25.8367 59.14 25.9491 59.6282 25.9491 60.1881C25.9491 60.229 25.9458 60.2769 25.9391 60.3315C25.9391 60.3861 25.9359 60.4373 25.9292 60.485H21.4569V59.7784H25.4334L25.0467 60.0242C25.0533 59.676 24.9838 59.3653 24.8384 59.0922C24.6929 58.8191 24.4914 58.6075 24.2335 58.4572C23.9823 58.3002 23.6881 58.2217 23.3509 58.2217C23.0204 58.2217 22.7262 58.3002 22.4684 58.4572C22.2106 58.6075 22.0089 58.8225 21.8635 59.1024C21.718 59.3756 21.6453 59.6896 21.6453 60.0447V60.2085C21.6453 60.5704 21.7247 60.8947 21.8833 61.1815C22.0486 61.4614 22.2766 61.6799 22.5675 61.837C22.8584 61.994 23.1923 62.0725 23.5691 62.0725C23.8798 62.0725 24.1608 62.0179 24.412 61.9087C24.6698 61.7994 24.8946 61.6355 25.0863 61.4171L25.6119 62.052C25.3739 62.3388 25.0764 62.5573 24.7194 62.7075C24.369 62.8577 23.9757 62.9328 23.5394 62.9328Z"
    fill="white"
  />
  <path
    d="M26.4661 62.8609L26.5256 62.0313C26.5718 62.0382 26.6148 62.045 26.6545 62.0518C26.6941 62.0587 26.7305 62.0621 26.7635 62.0621C26.9751 62.0621 27.1404 61.987 27.2593 61.8368C27.3849 61.6866 27.4775 61.4886 27.537 61.2428C27.5965 60.9901 27.6395 60.7068 27.6659 60.3927C27.6924 60.0786 27.7122 59.7645 27.7254 59.4504L27.8147 57.4431H31.8507V62.8712H30.8987V58.0167L31.1268 58.3034H28.4295L28.6477 58.0064L28.5782 59.5119C28.5584 59.9899 28.5221 60.4371 28.4692 60.8536C28.4163 61.2701 28.3336 61.6354 28.2213 61.9494C28.1155 62.2635 27.9667 62.5093 27.775 62.6868C27.5899 62.8644 27.3486 62.9531 27.0511 62.9531C26.9652 62.9531 26.8726 62.9428 26.7734 62.9224C26.6809 62.9087 26.5784 62.8882 26.4661 62.8609Z"
    fill="white"
  />
  <path
    d="M36.1209 59.2866C36.7886 59.2935 37.2977 59.4504 37.6481 59.7577C37.9985 60.065 38.1737 60.4985 38.1737 61.0584C38.1737 61.6456 37.9819 62.0997 37.5985 62.4206C37.2151 62.7346 36.6729 62.8882 35.9722 62.8814L33.6914 62.8712V57.4431H34.6434V59.2764L36.1209 59.2866ZM35.8929 62.1338C36.3226 62.1406 36.6465 62.0518 36.8647 61.8675C37.0894 61.6831 37.2019 61.4101 37.2019 61.0481C37.2019 60.6931 37.0928 60.4337 36.8746 60.2698C36.6565 60.106 36.3292 60.0206 35.8929 60.0137L34.6434 59.9933V62.1235L35.8929 62.1338Z"
    fill="white"
  />
  <path
    d="M39.3954 62.8712V57.4431H40.3474V59.7475H43.3422V57.4431H44.2941V62.8712H43.3422V60.5976H40.3474V62.8712H39.3954Z"
    fill="white"
  />
  <path
    d="M51.3414 62.8712V57.4431H52.2934V62.8712H51.3414ZM48.5152 59.2866C49.1829 59.2935 49.6886 59.4504 50.0324 59.7577C50.3828 60.065 50.558 60.4985 50.558 61.0584C50.558 61.6456 50.3663 62.0997 49.9829 62.4206C49.606 62.7346 49.0639 62.8882 48.3565 62.8814L46.1451 62.8712V57.4431H47.0971V59.2764L48.5152 59.2866ZM48.2871 62.1338C48.7102 62.1406 49.0342 62.0518 49.2589 61.8675C49.4837 61.6831 49.5961 61.4101 49.5961 61.0481C49.5961 60.6931 49.4837 60.4337 49.2589 60.2698C49.0408 60.106 48.7168 60.0206 48.2871 60.0137L47.0971 59.9933V62.1235L48.2871 62.1338Z"
    fill="white"
  />
  <path
    d="M54.1443 62.8713V57.4432H55.0963V61.3965L58.3191 57.4432H59.1819V62.8713H58.2299V58.918L55.0169 62.8713H54.1443ZM56.6035 56.7365C56.1209 56.7365 55.7408 56.6171 55.4632 56.3781C55.1921 56.1323 55.0533 55.7806 55.0467 55.3232H55.6912C55.6979 55.5827 55.7805 55.7875 55.9392 55.9377C56.1044 56.0879 56.3226 56.163 56.5936 56.163C56.8647 56.163 57.0829 56.0879 57.2482 55.9377C57.4134 55.7875 57.4993 55.5827 57.5059 55.3232H58.1704C58.1638 55.7806 58.0216 56.1323 57.744 56.3781C57.4663 56.6171 57.0862 56.7365 56.6035 56.7365Z"
    fill="white"
  />
  <path
    d="M63.6927 62.8712V57.4431H64.645V62.0109H67.5204V57.4431H68.4726V62.8712H63.6927ZM68.403 64.1309V62.82L68.6413 62.8712H67.5204V62.0109H69.3057V64.1309H68.403Z"
    fill="white"
  />
  <path
    d="M72.8797 62.9328C72.3176 62.9328 71.8218 62.8134 71.3924 62.5743C70.9694 62.3354 70.6385 62.0077 70.4009 61.5912C70.1691 61.1747 70.0532 60.6968 70.0532 60.1573C70.0532 59.6179 70.1659 59.14 70.3906 58.7235C70.6217 58.307 70.9359 57.9827 71.3325 57.7506C71.7362 57.5116 72.1888 57.3921 72.691 57.3921C73.2003 57.3921 73.6497 57.5082 74.0399 57.7403C74.43 57.9725 74.7339 58.3002 74.9522 58.7235C75.1769 59.14 75.2895 59.6282 75.2895 60.1881C75.2895 60.229 75.2863 60.2769 75.2792 60.3315C75.2792 60.3861 75.276 60.4373 75.2696 60.485H70.7975V59.7784H74.7738L74.3869 60.0242C74.3933 59.676 74.3244 59.3653 74.1789 59.0922C74.0334 58.8191 73.8319 58.6075 73.5737 58.4572C73.3226 58.3002 73.0284 58.2217 72.691 58.2217C72.3607 58.2217 72.0665 58.3002 71.809 58.4572C71.5508 58.6075 71.3493 58.8225 71.2038 59.1024C71.0583 59.3756 70.9855 59.6896 70.9855 60.0447V60.2085C70.9855 60.5704 71.0647 60.8947 71.2237 61.1815C71.3892 61.4614 71.6171 61.6799 71.9081 61.837C72.1985 61.994 72.5326 62.0725 72.9093 62.0725C73.2202 62.0725 73.501 62.0179 73.7521 61.9087C74.0102 61.7994 74.2349 61.6355 74.4268 61.4171L74.9522 62.052C74.7139 62.3388 74.4165 62.5573 74.0598 62.7075C73.7096 62.8577 73.3162 62.9328 72.8797 62.9328Z"
    fill="white"
  />
  <path
    d="M76.7665 62.8712V57.4431H77.7181V59.7475H80.7132V57.4431H81.6648V62.8712H80.7132V60.5976H77.7181V62.8712H76.7665Z"
    fill="white"
  />
  <path
    d="M84.5575 62.8712V58.0474L84.795 58.3034H82.6337V57.4431H87.4328V58.3034H85.2811L85.509 58.0474V62.8712H84.5575Z"
    fill="white"
  />
  <path
    d="M91.1929 62.9328C90.757 62.9328 90.3565 62.8304 89.9934 62.6256C89.6361 62.4139 89.3483 62.1032 89.1307 61.6936C88.9189 61.2839 88.8133 60.7718 88.8133 60.1573C88.8133 59.5429 88.9157 59.0307 89.1204 58.6211C89.3322 58.2114 89.6161 57.9042 89.9735 57.6993C90.3366 57.4945 90.7435 57.3921 91.1929 57.3921C91.7086 57.3921 92.1651 57.5082 92.5617 57.7403C92.9583 57.9725 93.2725 58.2968 93.5036 58.7133C93.7348 59.1229 93.8507 59.6043 93.8507 60.1573C93.8507 60.7104 93.7348 61.1952 93.5036 61.6116C93.2725 62.0281 92.9583 62.3524 92.5617 62.5846C92.1651 62.8167 91.7086 62.9328 91.1929 62.9328ZM88.4064 64.8582V57.4433H89.3187V58.9079L89.2595 60.1676L89.3586 61.4273V64.8582H88.4064ZM91.1137 62.0725C91.4511 62.0725 91.7517 61.994 92.0164 61.837C92.2874 61.6799 92.4986 61.458 92.6505 61.1713C92.8096 60.8776 92.8888 60.5397 92.8888 60.1573C92.8888 59.7682 92.8096 59.4336 92.6505 59.1537C92.4986 58.8669 92.2874 58.645 92.0164 58.488C91.7517 58.3309 91.4511 58.2524 91.1137 58.2524C90.7834 58.2524 90.4821 58.3309 90.211 58.488C89.9471 58.645 89.7353 58.8669 89.5769 59.1537C89.4243 59.4336 89.3483 59.7682 89.3483 60.1573C89.3483 60.5397 89.4243 60.8776 89.5769 61.1713C89.7353 61.458 89.9471 61.6799 90.211 61.837C90.4821 61.994 90.7834 62.0725 91.1137 62.0725Z"
    fill="white"
  />
  <path
    d="M80.652 22.606C82.1495 23.6051 82.5687 24.3977 82.5835 26.1832V23.9068L80.652 22.606Z"
    fill="white"
  />
  <path
    d="M9.83008 24.6226V26.1831C9.83755 25.0277 10.0979 24.4819 11.2569 23.7869L9.83008 24.6226Z"
    fill="white"
  />
  <path
    d="M48.7821 1.80811L46.2068 3.3165C48.1758 2.16291 49.2495 2.10268 51.1019 3.3165L48.7821 1.80811Z"
    fill="white"
  />
  <path
    d="M6.61096 26.5081L9.83014 24.6226M9.83014 24.6226V26.1831M9.83014 24.6226L11.2569 23.7869M85.4808 25.8581L82.5836 23.9068M82.5836 23.9068V23.7869M82.5836 23.9068V26.1831M82.5836 23.9068L80.6521 22.6059M74.7726 18.7081L77.4329 20.4378M74.7726 18.7081L51.102 3.3165M74.7726 18.7081V14.8081M77.4329 20.4378L80.6521 22.6059M77.4329 20.4378V14.8081M51.102 3.3165L48.7822 1.80811L46.2069 3.3165M51.102 3.3165C49.2496 2.10268 48.1758 2.16291 46.2069 3.3165M74.7726 14.8081V14.1581H75.5014M74.7726 14.8081C74.8904 14.4174 75.0546 14.2792 75.5014 14.1581M80.6521 22.6059C82.1496 23.605 82.5688 24.3977 82.5836 26.1831M77.4329 14.8081V14.1581H76.789M77.4329 14.8081C77.3331 14.4531 77.2159 14.2952 76.789 14.1581M9.83014 26.1831V51.8581M9.83014 26.1831C9.83761 25.0277 10.098 24.4819 11.2569 23.7869M11.2569 23.7869L46.2069 3.3165M82.5836 51.8581V26.1831M75.5014 14.1581H76.789"
    stroke="white"
    strokeWidth="1.5"
  />
</g>
<defs>
  <clipPath id="clip0_6_459">
    <rect
      width="94"
      height="65"
      fill="white"
      transform="translate(0 0.118164)"
    />
  </clipPath>
</defs>
</svg>
